<svg height="1022" width="720" xmlns="http://www.w3.org/2000/svg">
<rect height="1022" fill="#555" width="720"></rect>
<text fill="#7f7" font-family="Courier New" font-size="12" xml:space="preserve">
<tspan x="10" y="26">5 megabytes installed</tspan>
<tspan x="10" y="42"></tspan>
<tspan x="10" y="58">node_modules</tspan>
<tspan x="10" y="74">└─┬ potter@4.0.3 </tspan>
<tspan x="10" y="90">  ├── array-find@0.1.1 </tspan>
<tspan x="10" y="106">  ├─┬ chalk@0.5.1 </tspan>
<tspan x="10" y="122">  │ ├── ansi-styles@1.1.0 </tspan>
<tspan x="10" y="138">  │ ├── escape-string-regexp@1.0.5 </tspan>
<tspan x="10" y="154">  │ ├─┬ has-ansi@0.1.0 </tspan>
<tspan x="10" y="170">  │ │ └── ansi-regex@0.2.1 </tspan>
<tspan x="10" y="186">  │ ├── strip-ansi@0.3.0 </tspan>
<tspan x="10" y="202">  │ └── supports-color@0.2.0 </tspan>
<tspan x="10" y="218">  ├── debuglog@1.0.1 </tspan>
<tspan x="10" y="234">  ├─┬ error@3.0.0 </tspan>
<tspan x="10" y="250">  │ ├── string-template@0.1.3 </tspan>
<tspan x="10" y="266">  │ └─┬ xtend@2.1.2 </tspan>
<tspan x="10" y="282">  │   └── object-keys@0.4.0 </tspan>
<tspan x="10" y="298">  ├── minimist@1.2.0 </tspan>
<tspan x="10" y="314">  ├─┬ mkdirp@0.5.1 </tspan>
<tspan x="10" y="330">  │ └── minimist@0.0.8 </tspan>
<tspan x="10" y="346">  ├─┬ msee@0.1.2 </tspan>
<tspan x="10" y="362">  │ ├─┬ cardinal@0.5.0 </tspan>
<tspan x="10" y="378">  │ │ ├── ansicolors@0.2.1 </tspan>
<tspan x="10" y="394">  │ │ └─┬ redeyed@0.5.0 </tspan>
<tspan x="10" y="410">  │ │   └── esprima-fb@12001.1.0-dev-harmony-fb </tspan>
<tspan x="10" y="426">  │ ├─┬ chalk@0.4.0 </tspan>
<tspan x="10" y="442">  │ │ ├── ansi-styles@1.0.0 </tspan>
<tspan x="10" y="458">  │ │ ├── has-color@0.1.7 </tspan>
<tspan x="10" y="474">  │ │ └── strip-ansi@0.1.1 </tspan>
<tspan x="10" y="490">  │ ├── marked@0.3.6 </tspan>
<tspan x="10" y="506">  │ ├─┬ nopt@2.1.2 </tspan>
<tspan x="10" y="522">  │ │ └── abbrev@1.1.0 </tspan>
<tspan x="10" y="538">  │ └── xtend@2.1.2 </tspan>
<tspan x="10" y="554">  ├─┬ parents@1.0.1 </tspan>
<tspan x="10" y="570">  │ └── path-platform@0.11.15 </tspan>
<tspan x="10" y="586">  ├── process@0.7.0 </tspan>
<tspan x="10" y="602">  ├── read-json@0.0.0 </tspan>
<tspan x="10" y="618">  ├─┬ rimraf@2.6.1 </tspan>
<tspan x="10" y="634">  │ └─┬ glob@7.1.1 </tspan>
<tspan x="10" y="650">  │   ├── fs.realpath@1.0.0 </tspan>
<tspan x="10" y="666">  │   ├─┬ inflight@1.0.6 </tspan>
<tspan x="10" y="682">  │   │ └── wrappy@1.0.2 </tspan>
<tspan x="10" y="698">  │   ├── inherits@2.0.3 </tspan>
<tspan x="10" y="714">  │   ├─┬ minimatch@3.0.3 </tspan>
<tspan x="10" y="730">  │   │ └─┬ brace-expansion@1.1.7 </tspan>
<tspan x="10" y="746">  │   │   ├── balanced-match@0.4.2 </tspan>
<tspan x="10" y="762">  │   │   └── concat-map@0.0.1 </tspan>
<tspan x="10" y="778">  │   ├── once@1.4.0 </tspan>
<tspan x="10" y="794">  │   └── path-is-absolute@1.0.1 </tspan>
<tspan x="10" y="810">  ├── run-parallel@1.1.6 </tspan>
<tspan x="10" y="826">  ├── run-series@1.1.4 </tspan>
<tspan x="10" y="842">  ├── safe-json-parse@2.0.0 </tspan>
<tspan x="10" y="858">  ├── semver@3.0.1 </tspan>
<tspan x="10" y="874">  ├─┬ stackup@0.0.5 </tspan>
<tspan x="10" y="890">  │ └─┬ async-listener@0.2.2 </tspan>
<tspan x="10" y="906">  │   └── shimmer@0.7.3 </tspan>
<tspan x="10" y="922">  ├─┬ url@0.10.3 </tspan>
<tspan x="10" y="938">  │ ├── punycode@1.3.2 </tspan>
<tspan x="10" y="954">  │ └── querystring@0.2.0 </tspan>
<tspan x="10" y="970">  ├── uuid@1.4.2 </tspan>
<tspan x="10" y="986">  ├── wizzard@1.0.0 </tspan>
<tspan x="10" y="1002">  └── xtend@4.0.1</tspan>
</text>
</svg>
